<svg xmlns="http://www.w3.org/2000/svg" width="70.408" height="39.553" viewBox="0 0 70.408 39.553">
  <path id="Shape_5" data-name="Shape 5" d="M1513.515,714.777a3.727,3.727,0,0,1-3.719-3.725V697.235a3.729,3.729,0,0,1,3.719-3.73.768.768,0,0,1,0,1.535,2.193,2.193,0,0,0-2.188,2.194v13.817a2.191,2.191,0,0,0,2.188,2.19h62.97a2.191,2.191,0,0,0,2.188-2.19V697.235a2.193,2.193,0,0,0-2.188-2.194h-26.928a.768.768,0,0,1,0-1.535h26.928a3.729,3.729,0,0,1,3.719,3.73v13.817a3.727,3.727,0,0,1-3.719,3.725Zm6.995-5.963a2.779,2.779,0,0,1-2.773-2.78V684.056a.767.767,0,0,1,.246-.563l8.682-8.056a.761.761,0,0,1,.528-.213h15.236a2.782,2.782,0,0,1,2.776,2.78v28.031a2.781,2.781,0,0,1-2.776,2.78Zm21.92-1.534a1.262,1.262,0,0,0,1.246-1.246V678a1.261,1.261,0,0,0-1.246-1.245h-14.061v6.488a1.847,1.847,0,0,1-1.842,1.849h-7.258v20.939a1.261,1.261,0,0,0,1.242,1.246Zm-15.9-23.72a.32.32,0,0,0,.312-.313v-5.881l-6.676,6.194Zm41.93,25.119v-9.072h6.032l-.013,1.427h-4.492v2.493H1574v1.414h-4.013v3.739Zm-10.12,0v-9.072h3.106a5.348,5.348,0,0,1,3.74,1.189,4.221,4.221,0,0,1,1.307,3.3,4.465,4.465,0,0,1-1.266,3.347,5.376,5.376,0,0,1-3.884,1.233Zm1.528-1.44h1.695a3.667,3.667,0,0,0,2.519-.783,2.965,2.965,0,0,0,.872-2.319q0-3.114-3.56-3.118h-1.526Zm-10.38,1.44v-9.073h3.107a4.651,4.651,0,0,1,3,.794,3,3,0,0,1,.946,2.435,2.909,2.909,0,0,1-.966,2.417,4.737,4.737,0,0,1-2.957.768h-1.606v2.659Zm1.526-4.05h1.774a2.4,2.4,0,0,0,1.73-.482,2.03,2.03,0,0,0,.456-1.433,1.485,1.485,0,0,0-.58-1.333,3.365,3.365,0,0,0-1.83-.389h-1.55Zm-19.293-.622h-.055a.762.762,0,0,1-.467-.221h0l-6.191-6.213a.767.767,0,0,1,1.083-1.085l4.884,4.9V685.31a.765.765,0,1,1,1.53,0v16.077l4.352-4.367a.766.766,0,0,1,1.082,1.085l-5.657,5.677a.769.769,0,0,1-.16.123h0l-.013.007-.006,0-.009,0-.01.005,0,0-.014.007h0a.758.758,0,0,1-.267.069h-.075Z" transform="translate(-1509.796 -675.224)" fill="#222"/>
</svg>
